# Blender v2.80 (sub 75) OBJ File: ''
# www.blender.org
mtllib brickWall.mtl
o brickWall
v -0.500000 0.110000 0.048523
v 0.500000 0.110000 0.074437
v 0.500000 0.110000 0.048523
v -0.500000 0.110000 0.074437
v -0.500000 0.701914 -0.075649
v 0.500000 0.601914 -0.075649
v -0.500000 0.601914 -0.075649
v 0.500000 0.701914 -0.075649
v -0.500000 0.000000 0.081437
v 0.500000 0.000000 -0.098563
v 0.500000 0.000000 0.081437
v -0.500000 0.000000 -0.098563
v 0.500000 0.701914 0.058523
v -0.500000 0.701914 0.058523
v -0.500000 0.090000 0.081437
v 0.500000 0.090000 0.081437
v -0.500000 0.110000 -0.091563
v 0.500000 0.110000 -0.065649
v 0.500000 0.110000 -0.091563
v -0.500000 0.110000 -0.065649
v 0.500000 0.090000 -0.098563
v -0.500000 0.090000 -0.098563
v -0.500000 0.601914 -0.065649
v 0.500000 0.601914 -0.065649
v -0.500000 0.601914 0.058523
v 0.500000 0.601914 0.048523
v 0.500000 0.601914 0.058523
v -0.500000 0.601914 0.048523
vt 0.951172 0.976562
vt 0.951172 0.976562
vt 0.951172 0.976562
vt 0.951172 0.976562
vt 0.951172 0.976562
vt 0.951172 0.976562
vt 0.951172 0.976562
vt 0.951172 0.976562
vt 0.951172 0.976562
vt 0.951172 0.976562
vt 0.951172 0.976562
vt 0.951172 0.976562
vt 0.951172 0.976562
vt 0.951172 0.976562
vt 0.951172 0.976562
vt 0.951172 0.976562
vt 0.951172 0.976562
vt 0.951172 0.976562
vt 0.951172 0.976562
vt 0.951172 0.976562
vt 0.951172 0.976562
vt 0.951172 0.976562
vt 0.951172 0.976562
vt 0.951172 0.976562
vt 0.951172 0.976562
vt 0.951172 0.976562
vt 0.951172 0.976562
vt 0.951172 0.976562
vn 0.0000 1.0000 0.0000
vn 0.0000 0.0000 -1.0000
vn 0.0000 -1.0000 -0.0000
vn 0.0000 0.3304 0.9439
vn 0.0000 0.3304 -0.9439
vn 0.0000 -0.0000 1.0000
vn 1.0000 0.0000 0.0000
vn -1.0000 0.0000 0.0000
usemtl Material.001
s 1
f 1/1/1 2/2/1 3/3/1
f 2/2/1 1/1/1 4/4/1
f 5/5/2 6/6/2 7/7/2
f 6/6/2 5/5/2 8/8/2
f 9/9/3 10/10/3 11/11/3
f 10/10/3 9/9/3 12/12/3
f 5/5/1 13/13/1 8/8/1
f 13/13/1 5/5/1 14/14/1
f 2/2/4 15/15/4 16/16/4
f 15/15/4 2/2/4 4/4/4
f 17/17/1 18/18/1 19/19/1
f 18/18/1 17/17/1 20/20/1
f 17/17/5 21/21/5 22/22/5
f 21/21/5 17/17/5 19/19/5
f 23/23/3 6/6/3 24/24/3
f 6/6/3 23/23/3 7/7/3
f 25/25/3 26/26/3 27/27/3
f 26/26/3 25/25/3 28/28/3
f 13/13/6 25/25/6 27/27/6
f 25/25/6 13/13/6 14/14/6
f 13/13/7 6/6/7 8/8/7
f 6/6/7 13/13/7 24/24/7
f 24/24/7 13/13/7 26/26/7
f 26/26/7 13/13/7 27/27/7
f 22/22/2 10/10/2 12/12/2
f 10/10/2 22/22/2 21/21/2
f 16/16/6 9/9/6 11/11/6
f 9/9/6 16/16/6 15/15/6
f 23/23/8 5/5/8 7/7/8
f 5/5/8 23/23/8 14/14/8
f 14/14/8 23/23/8 28/28/8
f 14/14/8 28/28/8 25/25/8
f 9/9/8 22/22/8 12/12/8
f 22/22/8 9/9/8 17/17/8
f 17/17/8 9/9/8 20/20/8
f 20/20/8 9/9/8 1/1/8
f 1/1/8 9/9/8 4/4/8
f 4/4/8 9/9/8 15/15/8
f 21/21/7 11/11/7 10/10/7
f 11/11/7 21/21/7 19/19/7
f 11/11/7 19/19/7 18/18/7
f 11/11/7 18/18/7 3/3/7
f 11/11/7 3/3/7 2/2/7
f 11/11/7 2/2/7 16/16/7
f 26/26/6 1/1/6 3/3/6
f 1/1/6 26/26/6 28/28/6
f 23/23/2 18/18/2 20/20/2
f 18/18/2 23/23/2 24/24/2
f 20/20/8 28/28/8 23/23/8
f 28/28/8 20/20/8 1/1/8
f 26/26/7 18/18/7 24/24/7
f 18/18/7 26/26/7 3/3/7
